<svg width="213" height="200" viewBox="0 0 213 200" fill="none" xmlns="http://www.w3.org/2000/svg">
<g id="logo" clip-path="url(#clip0_402_417)">
<g id="&#208;&#161;&#208;&#187;&#208;&#190;&#208;&#185; 2">
<g id="&#208;&#161;&#208;&#187;&#208;&#190;&#208;&#185; 1">
<path id="Vector" d="M182.382 56.8463C182.194 57.1732 181.839 57.4674 181.974 58.0231H185.019C185.867 56.5031 186.65 54.9708 187.547 53.5284C188.443 52.086 189.418 50.6681 190.449 49.287C193.633 45.0742 196.368 40.5549 199.075 36.0152C199.193 35.815 199.287 35.6066 199.482 35.2552C198.125 35.1612 196.918 35.1081 195.72 34.9814C195.489 34.9404 195.25 34.9806 195.045 35.0952C194.84 35.2099 194.681 35.3919 194.595 35.6107C193.869 36.9346 193.099 38.234 192.345 39.5415C189.018 45.3084 185.697 51.0767 182.382 56.8463Z" fill="white"/>
<path id="Vector_2" d="M201.15 30.7931C201.319 30.3864 201.345 29.9336 201.223 29.5101C200.815 28.4273 198.871 28.1494 198.117 29.0483C197.519 29.859 197.05 30.7578 196.727 31.7125L200.147 32.6523C200.521 32.0552 200.856 31.4342 201.15 30.7931Z" fill="white"/>
<path id="Vector_3" d="M190.168 52.9032C191.24 54.3047 191.594 54.2884 192.899 52.7316C191.497 51.1584 191.244 51.1789 190.168 52.9032Z" fill="white"/>
<path id="Vector_4" d="M29.8765 92.7553C29.0612 91.4845 28.1888 90.2546 27.2879 89.0491C27.0606 88.7957 26.9208 88.4757 26.8893 88.1364C26.8577 87.7971 26.936 87.4566 27.1126 87.1654C27.9076 85.5637 28.6372 83.9292 29.3302 82.2621C30.3699 79.7554 30.6078 76.987 30.011 74.3391C28.8574 68.7533 24.52 64.8184 19.0045 64.4261C17.8346 64.3444 16.6565 64.4261 15.4784 64.4261C10.7388 64.4724 5.9965 64.5201 1.25148 64.5691C0.984528 64.5853 0.718961 64.6194 0.456565 64.6713C0.342424 67.5724 0.232359 70.3919 0.118218 73.2889L1.95263 73.0478L2.0097 73.2235L0.110065 74.1552C0.0774531 74.8212 0.0448412 75.5036 0.00815295 76.2555L3.67698 76.7417C3.69736 77.1135 3.7259 77.42 3.7259 77.7265C3.7259 88.4866 3.7259 99.2468 3.7259 110.007C3.76937 110.304 3.70532 110.607 3.54533 110.861C3.38533 111.115 3.13995 111.304 2.85353 111.392C1.86703 111.801 0.921284 112.312 0 112.765C0.0815295 114.886 0.154906 116.888 0.228283 118.894C0.301659 120.901 0.379112 122.952 0.460642 125.126C0.782684 125.015 0.941666 124.966 1.09657 124.905C6.66504 122.743 12.3028 120.794 17.9691 118.931C19.4743 118.432 20.9109 117.746 22.2453 116.888C27.5448 113.476 30.5573 108.458 31.5927 102.178C31.9173 100.51 31.9491 98.7981 31.6865 97.1193C31.3705 95.5609 30.7558 94.0789 29.8765 92.7553ZM13.0162 76.3535C14.7283 76.1574 16.3874 75.9122 18.0588 76.0552C19.4448 76.1697 20.1949 76.8725 20.5047 78.2658C20.8937 80.1351 20.764 82.0755 20.1296 83.8761C19.6527 85.2613 18.7477 86.103 17.2476 86.2297C15.882 86.3441 14.5204 86.5648 13.0325 86.7568L13.0162 76.3535ZM2.9799 72.7863L5.13636 72.5575V72.7986C4.80122 72.9665 4.43133 73.0529 4.05667 73.0507C3.68201 73.0486 3.31312 72.958 2.9799 72.7863ZM21.3607 103.404C21.1346 104.177 20.7493 104.893 20.2297 105.508C19.7101 106.122 19.0678 106.621 18.3441 106.971C16.6565 107.76 14.8139 107.997 12.9306 108.548V97.7036C13.3382 97.6055 13.7663 97.4952 14.1861 97.4094C15.67 97.1111 17.1497 96.8046 18.6377 96.539C20.3783 96.2244 21.3689 96.8986 21.6624 98.6965C21.9546 100.266 21.8509 101.884 21.3607 103.404Z" fill="white"/>
<path id="Vector_5" d="M14.178 37.5475C17.355 43.7503 20.5414 49.9503 23.7374 56.1476C24.1124 56.8708 24.4956 57.5941 24.9155 58.3868L28.78 57.3939C28.6658 57.1324 28.6251 56.9853 28.5599 56.8831C25.084 50.8492 21.6081 44.814 18.1322 38.7774C17.5819 37.8254 17.0846 36.8406 16.4731 35.9171C15.6333 34.6913 14.6672 34.5891 13.4769 35.5085C13.3668 36.3339 13.8601 36.9182 14.178 37.5475Z" fill="white"/>
<path id="Vector_6" d="M20.0644 32.2805C20.7044 32.2805 21.3403 32.2478 21.9803 32.2519L41.3273 32.2805C41.576 32.2805 41.8205 32.2273 42.1426 32.1947C41.0746 31.0914 40.1044 30.078 39.0404 29.0034C36.676 28.8195 17.3331 28.9094 16.5464 29.1178C16.901 31.3039 17.9976 32.2805 20.0644 32.2805Z" fill="white"/>
<path id="Vector_7" d="M12.3558 31.9291C13.1308 32.048 13.9223 31.9964 14.6754 31.7779C13.8601 30.552 13.1671 29.4488 12.4496 28.3455L12.1806 28.3905C12.0053 29.2567 11.8096 30.1189 11.671 30.9893C11.6446 31.097 11.642 31.2091 11.6634 31.3179C11.6848 31.4268 11.7297 31.5295 11.795 31.6191C11.8603 31.7087 11.9443 31.7828 12.0412 31.8364C12.1381 31.8899 12.2455 31.9216 12.3558 31.9291Z" fill="white"/>
<path id="Vector_8" d="M21.4993 22.3226C22.017 22.4247 22.2901 21.914 22.5429 21.5053C22.6578 21.333 22.7059 21.1244 22.6781 20.919C22.6503 20.7135 22.5486 20.5253 22.392 20.3898L21.3852 19.2988C21.0183 19.875 20.6758 20.3408 20.415 20.8475C20.3049 21.064 20.2437 21.4931 20.362 21.6034C20.6681 21.9431 21.0616 22.1919 21.4993 22.3226Z" fill="white"/>
<path id="Vector_9" d="M55.595 29.3507L58.7216 32.9506C59.753 34.1356 60.8454 35.2715 61.8075 36.5137C62.8368 37.8362 63.7896 39.2169 64.661 40.6489C65.7046 42.3732 66.9276 42.8513 68.7375 41.9932C69.1941 41.771 69.6236 41.4968 70.0175 41.176C70.6575 40.6693 71.2405 40.1177 71.8723 39.5742C72.7732 38.7774 73.4418 37.858 73.295 36.3748C74.0736 36.7548 74.6647 37.0858 75.2884 37.3309C75.6385 37.4656 75.9497 37.6855 76.1938 37.9709C76.4379 38.2562 76.6073 38.598 76.6866 38.9654C77.2614 40.9186 77.877 42.8554 78.4803 44.8004C78.574 45.0946 78.6923 45.3806 78.8023 45.6707C79.0714 44.261 79.0673 42.8595 79.8622 41.6214C79.9641 42.933 80.0701 44.2406 80.1761 45.5522L80.3718 45.5808L81.0281 43.7748C81.2278 44.5184 81.3827 45.115 81.5621 45.777C81.717 45.4051 81.8434 45.1109 81.9697 44.8086L82.4467 45.066C82.5934 44.5634 82.5649 44.0608 82.9155 43.6685C83.5677 44.4081 84.1833 45.0905 84.7784 45.7892C85.822 47.0151 86.89 48.2082 87.8847 49.4668C88.9935 50.8724 88.9609 50.8765 90.7382 50.6477C92.3688 50.4352 93.9994 50.2636 95.6504 50.1042C95.9235 50.0797 96.3352 50.1042 96.4657 50.284C97.1057 51.1543 97.9862 51.2238 98.9116 51.1911C101.026 51.1148 103.143 51.0331 105.263 50.9459C105.442 50.9186 105.619 50.879 105.793 50.8274C105.267 49.381 104.843 47.9958 104.268 46.6841C103.86 45.732 104.036 44.9761 104.602 44.0731L106.828 46.6759C106.563 45.5808 106.335 44.6329 106.107 43.6726L106.319 43.5827C106.726 44.2447 107.101 44.923 107.541 45.5645C107.982 46.206 108.23 46.9129 108.927 47.4359L108.581 44.5757C109.148 45.4542 109.547 46.3654 110.02 47.2316C110.479 48.1687 111.088 49.0245 111.822 49.765C111.369 47.1377 110.868 44.6982 111.006 42.2016L111.223 42.1485L113.937 48.0366C114.198 46.9783 114.015 45.9241 114.345 44.7677C115.058 46.3 115.633 47.7097 116.689 48.8538V44.6982C117.761 46.6146 118.605 48.6087 119.742 50.4515C119.901 48.7721 119.685 47.0968 120.24 45.303C120.753 46.2183 121.153 46.9742 121.589 47.7097C122.025 48.4452 122.343 49.2706 122.971 50.0184L124.251 46.3041C124.356 46.4281 124.443 46.5655 124.512 46.7127C124.83 47.7669 125.14 48.8211 125.486 49.9816C125.723 48.9764 125.935 48.0693 126.151 47.1581L126.358 47.1213L127.488 49.0827C127.63 48.6536 127.749 48.3104 127.895 47.8895C128.629 48.4616 128.711 49.3973 129.249 50.1246C129.383 49.6302 129.469 49.2625 129.583 48.8988C129.864 48.0121 130.101 47.105 130.464 46.2551C130.924 45.1763 131.556 45.0823 132.428 45.8464C132.689 46.0753 132.979 46.2551 133.207 46.4512L134.397 45.1641L136.362 48.3186C136.55 47.5994 136.696 47.0232 136.88 46.3L137.879 47.5258C138.058 46.5738 138.209 45.7525 138.364 44.9352L138.592 44.8944L139.509 46.9701C140.064 45.7116 139.774 44.5184 139.717 43.3212C141.123 45.6299 140.867 48.4044 141.755 50.8806C144.768 51.2892 147.748 51.2892 150.772 50.4924C150.01 48.719 149.329 47.0641 148.583 45.4419C148.441 45.1696 148.367 44.8668 148.367 44.5593C148.367 44.2519 148.441 43.949 148.583 43.6767C148.95 42.9167 149.236 42.1199 149.55 41.3599C148.355 40.8164 147.263 40.3669 146.211 39.8276C144.666 39.0354 143.308 37.9208 142.228 36.5587C142.078 36.3969 141.978 36.1949 141.941 35.9773C141.903 35.7597 141.929 35.5358 142.016 35.3328C142.314 34.5156 142.558 33.6984 142.807 32.8811C143.42 30.8151 143.48 28.6234 142.978 26.5272C142.2 23.1643 140.165 20.7698 137.422 18.927C134.414 16.9084 131.026 16.0912 127.524 15.6581C124.12 15.2495 120.704 14.9062 117.333 14.3914C112.364 13.6452 107.5 12.3205 102.837 10.4442C101.573 9.94802 100.415 9.21435 99.4252 8.2826C98.676 7.63152 97.8712 7.04769 97.0201 6.53782C96.2863 6.04748 95.5036 5.64295 94.7658 5.16079C93.4287 4.29044 92.112 3.39558 90.7872 2.5048C89.0837 1.39071 87.1371 0.705261 85.1127 0.506679C79.6985 -0.171599 74.221 -0.171599 68.8068 0.506679C67.2904 0.638044 65.8122 1.05387 64.4491 1.73252C61.7464 3.20353 60.128 5.49994 59.4961 8.56045C59.1986 10.011 58.8928 11.4575 58.5871 12.9122L57.2989 13.0389C57.3927 13.5741 57.4824 14.044 57.5557 14.514C57.6617 15.2372 57.621 15.3312 56.9524 15.605C56.5448 15.7847 56.1004 15.9441 55.6683 16.1116C55.864 16.5202 56.023 16.8635 56.2064 17.2639C55.7702 17.3538 55.542 17.55 55.7295 17.9994C55.7662 18.0934 55.7295 18.3304 55.6846 18.3386C55.2281 18.4326 55.3911 18.7676 55.4849 18.9801C55.5872 19.199 55.6183 19.4447 55.5737 19.6823C55.529 19.9199 55.411 20.1374 55.2362 20.304C54.9753 20.6186 54.743 20.9578 54.4862 21.2765C51.6897 24.6925 48.082 26.6947 43.8873 27.6917C43.659 27.7489 43.4348 27.847 43.072 27.9737C47.2056 30.2619 51.3636 30.2864 55.595 29.3507ZM104.04 48.9642C102.576 49.6956 100.832 49.6506 99.6698 48.8375C100.232 47.2766 100.697 46.8435 102.69 46.0099L104.04 48.9642ZM137.605 30.0985C137.149 29.0238 136.411 28.0554 136.146 26.9276C135.824 25.6406 135.24 24.4343 134.43 23.385C134.051 22.8619 133.725 22.298 133.37 21.7505C137.039 22.1591 140.651 27.2709 139.375 31.2222C138.995 31.2784 138.609 31.1969 138.284 30.9923C137.96 30.7878 137.719 30.4736 137.605 30.1066V30.0985ZM143.749 49.4708C143.533 48.3063 143.341 47.2398 143.125 46.0753H145.787C146.097 47.06 146.431 48.1183 146.798 49.2788L143.749 49.4708ZM142.648 40.89C142.917 40.2035 142.526 39.6641 142.489 38.8878L144.992 40.5222L144.271 42.5653L146.582 41.6132C146.835 43.6032 145.518 44.7595 142.827 44.8821C141.674 43.2477 140.5 41.6132 139.261 39.8439C140.708 39.4762 141.637 40.2157 142.648 40.8859V40.89ZM48.7424 27.3771C52.0973 25.334 54.584 22.298 57.2785 19.5031C58.5015 18.2487 59.6959 17.0024 60.8781 15.7234C62.3382 14.1936 64.1943 13.1013 66.2386 12.569C67.4004 12.2339 68.5785 11.9683 69.8585 11.6414L68.7946 11.147C69.0922 10.6035 69.565 10.5545 70.0175 10.4768L76.1852 9.39811C76.4339 9.35316 76.6744 9.26327 77.0454 9.16111L76.2831 8.7525L76.3157 8.59314L81.183 8.13141C80.8569 7.43268 80.0986 7.43677 79.5524 6.86062C81.1137 6.60319 82.569 6.75029 84.0365 6.60319C82.8543 5.85134 81.4561 5.56532 80.2617 4.74809C80.7014 4.71742 81.1428 4.71742 81.5825 4.74809C84.5991 5.19756 87.4445 6.23953 90.2572 7.40408C93.9722 8.93774 97.6873 10.4646 101.402 11.9846C103.224 12.7283 105.145 13.0552 107.073 13.3984C109.555 13.8438 112.001 14.4935 114.488 14.9021C118.157 15.5028 121.805 16.0136 125.474 16.4753C128.213 16.8185 130.957 17.1046 133.558 18.1384C135.955 19.0249 138.083 20.5185 139.733 22.4737C140.798 23.7492 141.564 25.2482 141.973 26.8601C142.382 28.472 142.425 30.1555 142.098 31.786C141.965 32.5983 141.574 33.3454 140.981 33.9149C141.054 33.0037 141.144 32.1701 141.189 31.3325C141.356 29.0137 140.935 26.6902 139.966 24.5781C138.335 21.1212 135.579 19.1435 131.98 18.3754C130.952 18.2032 129.915 18.0927 128.874 18.0444C128.628 18.0564 128.384 18.0989 128.148 18.171C128.996 19.9322 129.542 21.6688 128.796 23.7895C127.573 21.6034 126.628 19.401 124.585 18.0076C125.315 19.8995 126.049 21.7954 126.868 23.9284C126.016 23.5893 125.356 23.3318 124.447 22.9763C124.936 23.8181 125.303 24.4596 125.698 25.1379C124.972 25.3259 125.001 24.5372 124.528 24.3575C124.353 25.1747 123.766 25.1011 123.134 25.0398C122.501 24.9796 121.862 25.0322 121.247 25.1951C121.385 25.3218 121.507 25.5138 121.654 25.5588C122.359 25.7631 123.073 25.9224 123.819 26.1063L123.607 28.1943L121.569 26.4904L121.071 27.9614C120.256 25.4607 119.946 23.0581 119.4 20.4838C119.204 20.97 119.082 21.2806 118.903 21.7342C118.638 21.0681 118.422 20.5083 118.161 19.8504C117.753 21.0763 117.398 22.1509 117.036 23.2419H116.836C116.428 22.392 116.021 21.5421 115.633 20.6963H115.45C115.217 21.7137 114.985 22.7393 114.773 23.6873C114.518 23.6235 114.267 23.5416 114.023 23.4422C113.824 23.3564 113.654 23.2144 113.534 23.0335C112.947 21.869 112.388 20.6881 111.826 19.5113C111.731 19.2283 111.583 18.9662 111.39 18.739C111.284 19.6216 111.174 20.5042 111.035 21.5993C109.556 20.0564 108.327 18.2901 107.395 16.365C107.171 17.5009 106.987 18.4448 106.763 19.544L105.74 18.6696V20.1446L105.259 20.2386C105.083 21.4154 104.908 22.5841 104.733 23.7527H104.504C103.404 22.0365 102.686 20.1038 101.732 18.0321C101.398 19.6666 101.113 21.0845 100.791 22.6576L99.3518 20.7331L99.2092 21.6565C98.6588 21.6157 98.5406 21.203 98.3939 20.8393C98.0066 19.8137 97.6316 18.7962 97.2484 17.7543C97.0079 17.8401 96.8 17.9872 96.6206 17.9586C96.4412 17.93 96.3026 17.7297 96.213 17.55C96.121 17.3641 96.0696 17.1607 96.0621 16.9534C96.0445 16.6588 95.9477 16.3744 95.7819 16.1306C95.6161 15.8867 95.3876 15.6923 95.1205 15.5682C93.6325 14.8408 92.1487 14.0931 90.6119 13.4965C90.0534 13.2799 89.3482 13.4597 88.6674 13.4597C88.7815 13.7825 89.1443 13.8929 89.4052 14.1013C90.5752 15.0329 91.7777 15.9196 92.9151 16.888C93.2943 17.2308 93.5841 17.6615 93.7589 18.1424C94.2032 19.3315 94.5742 20.5533 94.9819 21.7709C95.7971 21.7995 95.8991 21.8731 95.8868 22.6944C95.8746 23.5157 95.789 24.3493 95.7768 25.1788C95.6991 25.8031 95.7906 26.4368 96.0417 27.0134C96.5513 28.0186 96.1722 29.1873 95.6952 30.2047C94.934 31.8962 93.8811 33.4399 92.5849 34.7648C91.8144 35.5371 91.0318 36.2971 90.245 37.0531C89.4243 37.8494 88.8734 38.8838 88.6701 40.0105C88.4668 41.1372 88.6213 42.2994 89.1117 43.3335C89.4233 44.0403 89.9309 44.6424 90.5741 45.0684C91.2172 45.4943 91.969 45.7261 92.7398 45.7361C93.7018 45.7851 94.6761 45.6544 95.7686 45.5972C95.8338 46.3449 95.895 47.105 95.9684 47.9998C95.3039 47.7465 94.7454 47.5912 94.244 47.3338C94.1532 47.2736 94.0512 47.2323 93.9442 47.2122C93.8372 47.1921 93.7272 47.1938 93.6208 47.217C93.5144 47.2402 93.4138 47.2846 93.3248 47.3475C93.2358 47.4103 93.1602 47.4904 93.1026 47.583C92.8655 47.876 92.6051 48.1493 92.324 48.4003C91.4475 49.1889 91.0358 49.2175 90.1145 48.4616C89.9841 48.3594 89.874 48.2287 89.7069 48.0775C89.8822 47.7383 90.0493 47.4155 90.2613 46.9987C89.8536 46.6964 89.446 46.3899 89.0384 46.1039C88.1811 45.5395 87.47 44.779 86.9634 43.8851C86.3483 42.7311 85.3893 41.7983 84.22 41.2169C84.0732 41.1433 83.9387 41.0411 83.8123 40.9635C84.0324 38.4138 84.22 35.9008 84.4849 33.4001C84.7132 31.3202 85.447 29.3752 86.2623 27.4711C86.3601 27.2341 86.4457 26.9889 86.6047 26.5721C84.2974 27.5119 83.209 29.4324 82.035 31.4755L80.6775 29.5959L78.7901 30.3477C78.3458 27.7244 77.9177 25.191 77.4897 22.6576H77.237C76.7396 24.3166 76.7315 26.0941 76.2423 27.9696C74.9827 25.853 74.0369 23.7772 72.8466 21.8404L72.6224 21.9344C72.6632 22.1877 72.6835 22.4411 72.7447 22.6862C73.1279 24.2267 73.5274 25.7631 73.9065 27.3036C73.96 27.5605 73.9315 27.8279 73.825 28.0677C73.0504 27.4915 72.602 26.6784 72.0884 25.9592C71.5747 25.2401 71.0652 24.5005 70.5515 23.7691L68.8313 21.3174V23.8508L68.6519 23.9325C68.1627 23.2256 67.6817 22.5064 67.1762 21.8077C66.6577 21.0856 66.0983 20.3939 65.5008 19.736C66.0715 23.152 66.1041 26.4128 63.7031 29.3548L60.5601 23.863C56.7323 26.0532 52.8759 27.892 48.3062 27.8511C48.4323 27.6763 48.5787 27.5171 48.7424 27.3771Z" fill="white"/>
<path id="Vector_10" d="M211.569 79.7164C210.619 75.8632 209.193 72.2306 206.865 69.0148C201.737 61.9213 193.673 61.4187 187.901 63.9685C184.563 65.4477 182.133 67.9811 180.294 71.1437C177.681 75.6385 176.552 80.5909 176.279 85.768C176.084 90.0271 176.496 94.2924 177.502 98.435C178.725 103.6 180.694 108.413 183.918 112.618C187.021 116.663 190.897 119.564 195.74 121.027C197.767 121.703 199.948 121.757 202.006 121.183C204.452 120.447 206.229 118.821 207.648 116.72C209.043 114.585 210.091 112.24 210.75 109.774C212.196 104.567 212.962 99.1937 213.029 93.7891C213 87.6599 212.584 83.9374 211.569 79.7164ZM200.004 74.5883C200.18 73.7343 200.29 73.6812 201.256 74.0694C201.182 75.5935 201.105 77.1463 201.023 78.7807C200.355 78.6663 200.249 78.2291 200.147 77.8491C199.84 76.7897 199.785 75.6732 199.984 74.5883H200.004ZM201.125 102.411C201.028 102.718 200.912 103.02 200.779 103.314C200.354 104.285 199.854 105.221 199.283 106.113C198.015 107.849 196.278 108.332 194.256 107.69C192.467 107.126 191.166 105.921 190.151 104.348C189.089 102.65 188.335 100.777 187.926 98.815C187.038 94.7604 186.742 90.5984 187.045 86.4586C187.121 84.2486 187.534 82.0632 188.268 79.9779C188.441 79.5297 188.64 79.0918 188.863 78.6663C191.158 74.2574 196.119 74.9193 198.378 77.2525C199.374 78.3025 200.145 79.5456 200.644 80.9055C201.407 83.0101 201.876 85.2101 202.038 87.4433C202.388 91.0915 202.328 94.7676 201.859 98.4023C201.704 99.5628 201.451 100.711 201.284 101.79L204.782 102.856C203.481 103.261 202.299 102.971 201.105 102.411H201.125Z" fill="white"/>
<path id="Vector_11" d="M59.1864 91.8972C59.378 91.6724 59.4799 91.5376 59.5941 91.415C62.8365 88.1284 64.837 83.8132 65.2522 79.2097C65.7373 74.1184 64.2209 69.8484 60.1444 66.7389C57.8313 64.9927 55.0093 64.0579 52.1137 64.0788C49.4926 64.0461 46.8673 64.1156 44.2421 64.136L35.1637 64.2054C34.964 64.2054 34.7561 64.23 34.4259 64.2463C34.2588 67.5152 34.0916 70.6575 33.9245 73.8773L37.6748 74.3268C37.6178 83.6064 37.5607 92.7961 37.5036 101.982L33.7859 103.976C33.9245 107.351 34.0631 110.722 34.1935 114.146L49.6842 110.554C49.8513 107.784 50.0143 105.034 50.1896 102.153H47.1812C47.3116 100.257 47.0304 98.4759 47.3687 96.6902L49.3825 96.4083C49.5333 96.776 49.6678 97.0907 49.7901 97.4053C50.9112 100.266 52.0607 103.101 53.1247 105.986C53.5296 107.112 54.2159 108.115 55.1181 108.9C55.319 109.095 55.5667 109.235 55.8372 109.307C56.1078 109.378 56.3922 109.379 56.6631 109.308C58.5138 108.953 60.3686 108.642 62.2316 108.34C63.8866 108.07 65.5457 107.837 67.2864 107.58C67.4576 104.548 67.6207 101.569 67.7959 98.4554L62.6147 98.9008C61.4597 96.5363 60.317 94.2018 59.1864 91.8972ZM59.7612 85.4002C59.9294 85.2276 60.1077 85.0653 60.2952 84.914L61.298 85.8701C61.0486 86.0607 60.7743 86.216 60.4827 86.3319C60.2033 86.3927 59.9112 86.3429 59.6674 86.1929C59.3658 85.9723 59.5615 85.6536 59.7612 85.4002ZM53.4875 83.8312C52.766 85.1918 51.7224 86.0499 50.1244 86.0785C49.2561 86.0785 48.3919 86.242 47.5358 86.3319C47.2913 85.5146 47.2383 76.4925 47.4625 74.192C48.8946 73.9226 50.3655 73.9379 51.7917 74.2369C52.3993 74.3546 52.9584 74.6505 53.3981 75.0869C53.8379 75.5233 54.1385 76.0808 54.262 76.6886C54.8205 79.1689 54.686 81.5797 53.4875 83.8434V83.8312Z" fill="white"/>
<path id="Vector_12" d="M71.0081 81.1997C71.0081 84.2806 71.0081 87.3575 70.9715 90.4384C70.9339 92.7236 71.2925 94.998 72.0313 97.1601C73.5315 101.414 76.2097 104.515 80.4003 106.15C81.2156 106.456 82.0554 106.624 82.9971 106.889C82.9359 106.072 82.6139 105.353 83.2702 104.74C83.5025 105.557 83.7023 106.272 83.9387 107.098C85.4185 107.004 86.7923 107.016 88.1579 106.808C93.3635 106.019 97.493 103.445 100.294 98.7905C102.156 95.6973 102.858 92.2772 102.874 88.6855C102.874 83.6718 102.874 78.654 102.874 73.6362V72.5044L106.086 71.8343V64.0706C105.034 63.8581 90.404 63.8908 89.6539 64.0951C89.2708 66.7143 89.071 71.6872 89.3237 72.5289L93.1719 72.9579C93.1923 73.2358 93.2127 73.3666 93.2127 73.5055C93.2127 78.1433 93.2372 82.781 93.1638 87.3983C93.1927 89.3416 92.8106 91.269 92.0428 93.0536C90.9625 95.3786 88.9936 96.5063 86.3642 96.3225C84.1996 96.159 82.8462 94.9291 82.0717 92.4243C82.0024 92.1914 81.9412 91.9585 81.8842 91.7256C81.5037 89.8963 81.3435 88.0278 81.4072 86.1603C81.4072 81.9379 81.429 77.7156 81.4725 73.4932C81.4725 73.1949 81.5132 72.8926 81.5377 72.5984L84.7173 72.0059V64.0338H67.7673C67.6165 66.8941 67.4698 69.6196 67.323 72.4186L71.0448 72.8721V74.0408L71.0081 81.1997Z" fill="white"/>
<path id="Vector_13" d="M149.452 73.9591L153.006 74.1266V98.9376C151.783 99.1215 150.561 98.8722 149.293 99.1092C149.467 102.182 149.637 105.178 149.802 108.099L166.924 111.286C167.066 108.042 167.205 104.846 167.331 101.626L163.512 100.56C163.512 91.889 163.406 83.2918 163.454 74.5842L167.083 74.8294C167.258 76.7213 167.425 78.5069 167.6 80.4233L175.085 81.0608C175.085 80.3865 175.085 79.8349 175.085 79.2915C175.085 78.5641 175.028 77.8409 175.028 77.1135C175.011 72.9293 174.998 68.7424 174.987 64.5528C174.987 64.2259 174.966 63.8949 174.954 63.5231C163.893 64.3452 152.785 64.3028 141.731 63.3964C141.596 68.5858 141.466 73.6485 141.323 78.7684L148.795 79.1525C149.036 77.3791 149.24 75.7161 149.452 73.9591Z" fill="white"/>
<path id="Vector_14" d="M140.712 73.8896C140.712 70.776 140.712 67.6623 140.712 64.5487C140.712 64.185 140.683 63.8213 140.663 63.4127C129.601 64.1844 118.499 64.1694 107.44 63.3678C107.285 68.2711 107.134 73.101 106.979 77.9839H114.455C114.675 76.3958 114.898 74.8035 115.124 73.2072H118.047C118.231 73.2207 118.415 73.2439 118.597 73.2767V96.1264L114.863 96.5023C115.026 99.3626 115.185 102.121 115.344 104.961C118.303 105.1 121.157 105.222 124.002 105.369C126.848 105.516 129.656 105.868 132.534 106.011C132.685 103.04 132.824 100.225 132.971 97.3359L129.147 96.6902V91.035C128.063 90.9533 127.109 90.9206 126.138 90.798C125.168 90.6755 124.231 90.463 123.285 90.2914C125.189 89.7765 127.153 90.1647 129.147 89.846V73.5014H132.771C132.954 75.1931 133.126 76.7948 133.305 78.4783L140.789 78.7725C140.789 78.319 140.789 77.9798 140.789 77.6407C140.753 76.378 140.716 75.1359 140.712 73.8896Z" fill="white"/>
<path id="Vector_15" d="M131.218 124.337C130.272 120.847 129.326 117.362 128.389 113.913C126.697 113.738 123.187 113.799 122.514 113.999V135.137H126.888C126.954 131.741 126.856 128.431 127.137 125.113C127.833 127.445 128.53 129.773 129.228 132.097H133.419C134.206 129.69 134.797 127.271 135.612 124.93L135.832 124.979V135.149H140.194V113.901H134.287C133.256 117.382 132.449 120.913 131.218 124.337Z" fill="white"/>
<path id="Vector_16" d="M178.725 49.3156C177.211 51.8159 175.888 54.4276 174.767 57.1283C174.669 57.3775 174.596 57.6349 174.481 57.9741C175.733 57.9741 176.903 57.9414 178.069 57.9741C178.317 57.9985 178.567 57.9422 178.782 57.8134C178.996 57.6847 179.163 57.4903 179.259 57.259C180.78 54.6071 182.349 51.9879 183.886 49.3442C186.387 45.1522 188.65 40.8222 190.665 36.3748C190.824 36.007 190.963 35.6311 191.154 35.1489H189.805C180.519 35.1489 171.232 35.2797 161.95 34.9406C161.482 34.9406 161.013 34.8588 160.544 34.8302C158.913 34.7281 157.258 34.5769 155.615 34.5524C154.888 34.6178 154.168 34.7546 153.467 34.961L155.024 39.4966H164.808C168.069 39.4966 171.33 39.4966 174.591 39.4966C177.853 39.4966 181 39.4516 184.322 39.5334C184.155 39.8603 184.069 40.04 183.967 40.2158C182.225 43.2477 180.478 46.2809 178.725 49.3156Z" fill="white"/>
<path id="Vector_17" d="M33.7369 39.0839C37.3324 39.0022 40.9278 38.9613 44.5233 38.8959C45.0818 38.8959 45.6362 38.851 46.3536 38.8224C45.7299 37.5148 45.1551 36.3707 44.6211 35.1735C44.5288 34.9204 44.3512 34.7076 44.119 34.5718C43.8867 34.436 43.6145 34.3858 43.3493 34.4298C41.8695 34.487 40.3897 34.4747 38.9141 34.5115L20.1623 34.961C19.8117 34.961 19.4652 35.01 18.9393 35.0468C23.2604 42.2793 27.4714 49.3483 31.6946 56.4132L35.82 55.4203C35.5714 54.9054 35.3798 54.4682 35.1515 54.0514C34.2832 52.4905 33.4557 50.901 32.5099 49.3932C30.4309 46.0875 28.2826 42.8186 26.1669 39.5334C25.9672 39.2269 25.796 38.9041 25.5228 38.4383C26.1669 38.4914 26.6316 38.5078 27.0882 38.5731C29.2874 38.9198 31.5107 39.0906 33.7369 39.0839Z" fill="white"/>
<path id="Vector_18" d="M109.005 113.893C107.574 120.995 106.151 128.051 104.725 135.141H109.18C109.441 133.633 109.69 132.174 109.943 130.699H114.341C114.602 132.203 114.855 133.653 115.112 135.149H119.571C118.128 127.982 116.718 120.925 115.287 113.872L109.005 113.893ZM110.636 126.723C111.121 124.223 111.594 121.779 112.066 119.332H112.254C112.735 121.783 113.212 124.235 113.705 126.74L110.636 126.723Z" fill="white"/>
<path id="Vector_19" d="M101.834 117.636V113.958C100.611 113.738 90.7586 113.791 90.0575 114.007V135.161H101.814V131.328H94.5212V126.511H101.044V122.654C99.9063 122.654 98.8382 122.654 97.7824 122.654C96.7266 122.654 95.5933 122.69 94.5212 122.621V117.636H101.834Z" fill="white"/>
<path id="Vector_20" d="M152.073 31.3243C152.198 31.5427 152.387 31.7171 152.615 31.8238C152.843 31.9306 153.097 31.9645 153.345 31.9209C154.686 31.8392 156.035 31.8473 157.381 31.8923C162.117 32.0557 166.854 32.3009 171.591 32.4235C178.183 32.6095 184.78 32.4172 191.35 31.8473C193.331 31.6716 194.26 30.7277 194.521 28.5212H192.324C188.794 28.5212 185.26 28.5212 181.725 28.5662C178.028 28.5989 174.326 28.7582 170.629 28.6888C165.052 28.5866 159.476 28.3251 153.895 28.1535C153.358 28.1328 152.822 28.2103 152.313 28.3823C151.372 28.7174 151.176 29.1628 151.478 30.1393C151.631 30.5557 151.83 30.9532 152.073 31.3243Z" fill="white"/>
<path id="Vector_21" d="M81.1953 135.173V117.681H85.5653V113.913H72.3412V117.66H76.7275V135.19L81.1953 135.173Z" fill="white"/>
<path id="Vector_22" d="M160.613 127.402C156.655 125.469 152.79 123.499 148.791 121.681C148.718 123.843 148.649 125.837 148.575 127.998L165.142 131.737C165.052 130.348 164.123 129.416 163.984 128.133C164.323 128.203 164.616 128.235 164.893 128.321C168.049 129.281 171.204 130.254 174.359 131.214C174.836 131.357 175.321 131.574 175.859 131.377C170.678 128.677 165.403 126.237 159.932 123.973C159.765 125.281 160.939 126.147 160.613 127.402Z" fill="white"/>
<path id="Vector_23" d="M64.0373 121.603C59.916 123.524 56.0352 125.473 52.0933 127.402C51.7386 126.139 52.9819 125.281 52.7577 124.063C52.5496 124.107 52.3451 124.167 52.1463 124.243C47.2029 126.499 42.2581 128.76 37.312 131.026C37.1436 131.135 36.9889 131.264 36.8513 131.41C37.372 131.436 37.893 131.365 38.3881 131.202L47.9516 128.276C48.2106 128.218 48.4736 128.18 48.7383 128.162C48.5793 129.428 47.6458 130.356 47.601 131.737L64.0414 128.023C64.4083 125.853 63.7235 123.855 64.0373 121.603Z" fill="white"/>
<path id="Vector_24" d="M109.405 152.47V142.198H107.366C106.959 144.67 106.551 147.101 106.123 149.553H105.948C105.537 147.101 105.13 144.657 104.725 142.222H102.589V152.495H103.714V144.155L103.901 144.134C104.382 146.905 104.859 149.675 105.344 152.478H106.759C107.187 149.736 107.615 147.036 108.039 144.335H108.214V152.458L109.405 152.47Z" fill="white"/>
<path id="Vector_25" d="M115.515 143.423C115.502 143.107 115.368 142.808 115.14 142.588C114.912 142.369 114.608 142.246 114.292 142.247C113.297 142.173 112.303 142.149 111.243 142.095V152.458H112.596V148.147C113.893 147.988 114.141 148.184 114.17 149.312C114.17 149.969 114.17 150.627 114.17 151.281C114.17 151.69 114.227 152.074 114.255 152.45H115.572C115.572 151.265 115.572 150.166 115.572 149.062C115.572 148.319 115.356 147.665 114.704 147.428C115.006 146.913 115.434 146.48 115.519 145.994C115.614 145.139 115.612 144.277 115.515 143.423ZM114.174 145.977C114.096 146.705 113.766 146.848 112.645 146.758V143.423C112.959 143.403 113.244 143.366 113.53 143.374C113.616 143.371 113.703 143.385 113.783 143.417C113.864 143.449 113.937 143.497 113.999 143.558C114.06 143.62 114.108 143.693 114.139 143.774C114.171 143.855 114.185 143.941 114.182 144.028C114.231 144.683 114.228 145.34 114.174 145.994V145.977Z" fill="white"/>
<path id="Vector_26" d="M98.7649 151.489C98.559 151.499 98.3576 151.427 98.2048 151.289C98.0519 151.15 97.9602 150.956 97.9496 150.75C97.8975 150.381 97.8662 150.01 97.8559 149.638H96.5106C96.465 150.072 96.465 150.509 96.5106 150.942C96.5786 151.377 96.7696 151.784 97.061 152.115C97.4107 152.412 97.8371 152.606 98.2912 152.672C98.7454 152.739 99.209 152.676 99.6291 152.491C100.481 152.196 100.766 151.477 100.852 150.648C100.938 150.118 100.908 149.576 100.763 149.059C100.618 148.542 100.362 148.064 100.012 147.657C99.4539 147.011 98.8872 146.374 98.3817 145.699C98.1543 145.437 97.9974 145.12 97.9261 144.78C97.8547 144.44 97.8713 144.087 97.9741 143.754C98.011 143.586 98.1073 143.438 98.2452 143.336C98.3831 143.233 98.5532 143.185 98.7242 143.199C98.8184 143.194 98.9126 143.209 99.0013 143.241C99.09 143.273 99.1716 143.322 99.2412 143.386C99.3109 143.45 99.3674 143.527 99.4073 143.612C99.4473 143.698 99.4701 143.791 99.4742 143.885C99.515 144.216 99.5272 144.555 99.5558 144.935H100.718C100.791 144.118 100.917 143.301 100.396 142.7C99.78 141.965 98.8954 141.997 98.0516 142.14C97.6953 142.195 97.3647 142.359 97.1055 142.61C96.8462 142.861 96.6712 143.187 96.6044 143.542C96.4521 144.108 96.4424 144.703 96.5761 145.273C96.7099 145.844 96.983 146.372 97.3708 146.811C97.913 147.469 98.5203 148.069 99.0788 148.715C99.3192 148.991 99.4904 149.32 99.5784 149.675C99.6663 150.03 99.6683 150.402 99.5843 150.758C99.563 150.96 99.4672 151.147 99.3157 151.283C99.1642 151.418 98.9678 151.492 98.7649 151.489Z" fill="white"/>
<path id="Vector_27" d="M131.495 141.552C130.981 141.487 130.619 141.462 130.272 141.397C128.963 141.152 128.067 141.67 127.268 142.761C124.912 145.889 122.838 149.22 121.071 152.715C116.791 161.472 111.74 169.771 106.857 178.168C106.48 178.843 106.03 179.475 105.516 180.052L95.0023 161.1C91.5101 154.796 88.0125 148.496 84.5095 142.198L79.9479 141.936C80.4085 143.244 104.855 187.067 105.43 187.607C114.549 172.525 123.407 157.341 131.495 141.552Z" fill="white"/>
<path id="Vector_28" d="M134.825 141.789L107.105 190.933L110.065 195.787C110.297 195.276 110.452 194.97 110.579 194.647C111.443 192.473 112.331 190.308 113.155 188.109C115.334 182.46 118.21 177.107 121.715 172.173C126.114 165.869 130.093 159.302 133.88 152.593C135.449 149.814 136.048 146.811 136.591 143.754C136.79 142.529 136.13 141.846 134.825 141.789Z" fill="white"/>
<path id="Vector_29" d="M75.1213 144.118C75.374 145.189 75.6675 146.255 75.9936 147.309C77.0014 150.348 78.3426 153.266 79.9927 156.009C83.5188 162.138 86.8819 168.361 90.0167 174.715C93.1195 181.035 96.8406 187.03 101.125 192.612C101.37 192.927 101.631 193.229 101.94 193.597L103.922 191.145L76.6377 141.732C75.2069 142.198 74.8115 142.802 75.1213 144.118Z" fill="white"/>
<path id="Vector_30" d="M104.272 195.947C104.133 196.207 104.06 196.499 104.06 196.794C104.06 197.09 104.133 197.382 104.272 197.642C104.698 198.513 105.261 199.309 105.939 200L108.426 198.635L105.507 193.883C105.035 194.672 104.615 195.289 104.272 195.947Z" fill="white"/>
<path id="Vector_31" d="M45.3386 51.0767C45.8848 50.6272 46.3822 50.1124 47.01 49.5281C46.2925 49.1194 45.6729 48.7108 45.0125 48.3962C44.7146 48.2239 44.3618 48.1741 44.0281 48.2572C43.6944 48.3402 43.4058 48.5497 43.2229 48.8416C43.0468 49.2159 42.9802 49.6327 43.0307 50.0434C43.0812 50.4542 43.2468 50.8422 43.5083 51.1625C43.9893 51.6488 44.6537 51.6488 45.3386 51.0767Z" fill="white"/>
<path id="Vector_32" d="M143.459 154.803C142.795 155.302 142.587 155.89 142.929 156.462C143.211 156.928 143.557 157.349 143.953 157.892C144.483 157.41 144.968 157.034 145.375 156.585C145.583 156.352 145.698 156.051 145.698 155.739C145.698 155.427 145.583 155.126 145.375 154.893C145.124 154.642 144.789 154.494 144.435 154.477C144.08 154.461 143.733 154.577 143.459 154.803Z" fill="white"/>
<path id="Vector_33" d="M165.656 14.0686C166.063 13.758 166.414 13.3944 166.911 12.949C166.398 12.5403 166.014 12.2053 165.603 11.9193C164.983 11.4861 164.551 11.576 164.033 12.1971C163.516 12.8182 163.54 13.2432 164.001 13.7539C164.584 14.4036 165.097 14.514 165.656 14.0686Z" fill="white"/>
<path id="Vector_34" d="M162.79 51.7264C162.444 52.2127 162.741 52.5682 163.022 52.9114C163.43 53.4303 163.752 53.4957 164.217 53.1525C164.563 52.895 164.869 52.5845 165.289 52.2127C164.836 51.8939 164.474 51.5997 164.066 51.3709C163.565 51.0767 163.153 51.2156 162.79 51.7264Z" fill="white"/>
<path id="Vector_35" d="M72.3086 153.206C72.1898 153.181 72.0671 153.183 71.9493 153.212C71.8315 153.241 71.7217 153.296 71.6278 153.373C71.4077 153.553 71.1468 153.855 71.424 154.162C71.5088 154.251 71.6116 154.32 71.7255 154.366C71.8394 154.412 71.9618 154.433 72.0844 154.427C72.443 154.31 72.7854 154.148 73.1035 153.945C72.7529 153.606 72.5613 153.316 72.3086 153.206Z" fill="white"/>
</g>
</g>
</g>
<defs>
<clipPath id="clip0_402_417">
<rect width="213" height="200" fill="white"/>
</clipPath>
</defs>
</svg>
